<svg width="58" height="58" fill="none" xmlns="http://www.w3.org/2000/svg"><path d="M50.465.001a4.058 4.058 0 00-4.053 4.054 4.058 4.058 0 004.053 4.053 4.058 4.058 0 004.054-4.053A4.058 4.058 0 0050.465 0zm0 6.08a2.029 2.029 0 01-2.026-2.026c0-1.118.909-2.027 2.026-2.027a2.03 2.03 0 012.027 2.027 2.029 2.029 0 01-2.027 2.026zM35.773 3.682a1.148 1.148 0 100-2.295 1.148 1.148 0 000 2.295zM56.04 16.587a1.148 1.148 0 100 2.296 1.148 1.148 0 000-2.296zm-31.996 9.109l-4.13 2.478v4.956l4.13 2.479 4.13-2.479v-4.956l-4.13-2.478z" fill="#2196F3"/><path d="M46.921 16.352L24.628 3.416a1.01 1.01 0 00-1.018 0L1.317 16.352a1.014 1.014 0 00-.504.876v26.347c0 .356.186.685.49.868l22.294 13.41a1.016 1.016 0 001.044 0l22.294-13.41c.304-.183.49-.512.49-.868V17.228c0-.361-.192-.695-.504-.876zM24.12 5.464l20.288 11.772-13.414 7.927-5.86-3.448v-5.5a1.013 1.013 0 00-2.027 0v5.5l-6.594 3.879c-.31.182-.5.514-.5.873v7.548L2.84 41.8V17.812L24.12 5.464zm0 32.343l-6.08-3.576v-7.184l6.08-3.576 6.08 3.576v7.184l-6.08 3.576zm0 17.996L3.805 43.583l13.038-7.705 6.263 3.684v5.026a1.013 1.013 0 002.027 0v-5.026l6.593-3.878c.31-.182.5-.514.5-.873v-8.023L45.4 19.004v23.998l-21.28 12.8z" fill="#E4EAEC"/></svg>