<svg width="50" height="16" fill="none" xmlns="http://www.w3.org/2000/svg"><path d="M3.502 12.363h5.967V15H.074V.781h3.428v11.582zm18.828-4.18c0 1.387-.257 2.614-.771 3.682-.515 1.068-1.247 1.892-2.198 2.47-.944.574-2.021.86-3.232.86-1.211 0-2.285-.276-3.223-.83-.937-.56-1.67-1.357-2.197-2.392-.52-1.036-.794-2.224-.82-3.565v-.8c0-1.394.254-2.621.761-3.682.515-1.068 1.247-1.891 2.198-2.47.957-.58 2.044-.87 3.261-.87 1.205 0 2.279.286 3.223.86.944.572 1.677 1.39 2.197 2.45.528 1.055.795 2.266.801 3.633v.655zm-3.486-.595c0-1.413-.238-2.484-.713-3.213-.469-.736-1.143-1.104-2.022-1.104-1.718 0-2.627 1.29-2.724 3.868l-.01 1.045c0 1.393.231 2.464.693 3.213.463.748 1.15 1.123 2.06 1.123.867 0 1.534-.368 2.003-1.104.469-.736.706-1.794.713-3.174v-.654zm16.894 5.654c-.527.586-1.298 1.058-2.314 1.416-1.016.358-2.13.537-3.34.537-1.862 0-3.35-.57-4.463-1.709-1.113-1.139-1.709-2.724-1.787-4.756l-.01-1.23c0-1.4.248-2.62.742-3.662.495-1.048 1.202-1.852 2.12-2.412.924-.567 1.992-.85 3.203-.85 1.77 0 3.144.407 4.12 1.22.984.808 1.557 2.016 1.72 3.624h-3.301c-.117-.794-.371-1.36-.762-1.7-.39-.338-.944-.507-1.66-.507-.86 0-1.524.364-1.992 1.094-.47.729-.707 1.77-.713 3.125v.859c0 1.42.24 2.487.722 3.203.489.71 1.254 1.065 2.295 1.065.892 0 1.556-.199 1.992-.596V9.756h-2.382V7.402h5.81v5.84zm14.034-5.058c0 1.386-.258 2.614-.772 3.681-.514 1.068-1.247 1.892-2.197 2.47-.944.574-2.022.86-3.233.86-1.21 0-2.285-.276-3.222-.83-.938-.56-1.67-1.357-2.198-2.392-.52-1.036-.794-2.224-.82-3.565v-.8c0-1.394.254-2.621.762-3.682.514-1.068 1.247-1.891 2.197-2.47.957-.58 2.044-.87 3.262-.87 1.204 0 2.278.286 3.222.86.944.572 1.677 1.39 2.198 2.45.527 1.055.794 2.266.8 3.633v.655zm-3.487-.596c0-1.413-.237-2.484-.713-3.213-.469-.736-1.142-1.104-2.021-1.104-1.719 0-2.627 1.29-2.725 3.868l-.01 1.045c0 1.393.231 2.464.694 3.213.462.748 1.149 1.123 2.06 1.123.866 0 1.533-.368 2.002-1.104.469-.736.707-1.794.713-3.174v-.654z" fill="#000"/></svg>