<svg width="152" height="16" fill="none" xmlns="http://www.w3.org/2000/svg"><path d="M12.578 10.185c-.045.99-.312 1.866-.8 2.627-.489.756-1.176 1.342-2.061 1.758-.88.417-1.885.625-3.018.625-1.868 0-3.34-.608-4.414-1.826C1.211 12.152.674 10.433.674 8.213V7.51c0-1.393.24-2.61.722-3.653.489-1.048 1.189-1.855 2.1-2.421.912-.573 1.966-.86 3.164-.86 1.725 0 3.112.456 4.16 1.367 1.048.905 1.644 2.155 1.787 3.75H9.19c-.026-.866-.244-1.487-.654-1.865-.41-.377-1.035-.566-1.875-.566-.853 0-1.478.319-1.875.957-.397.638-.605 1.657-.625 3.056v1.006c0 1.517.189 2.601.567 3.252.384.651 1.041.977 1.972.977.788 0 1.39-.186 1.807-.557.417-.371.638-.96.664-1.768h3.408zM26.24 8.184c0 1.386-.257 2.614-.771 3.681-.515 1.068-1.247 1.892-2.198 2.47-.944.574-2.021.86-3.232.86-1.21 0-2.285-.276-3.223-.83-.937-.56-1.67-1.357-2.197-2.392-.52-1.036-.794-2.224-.82-3.565v-.8c0-1.394.254-2.621.761-3.682.515-1.068 1.247-1.891 2.198-2.47.957-.58 2.044-.87 3.262-.87 1.204 0 2.278.286 3.222.86.944.572 1.677 1.39 2.197 2.45.528 1.055.795 2.266.801 3.633v.655zm-3.486-.596c0-1.413-.238-2.484-.713-3.213-.469-.736-1.143-1.104-2.021-1.104-1.72 0-2.627 1.29-2.725 3.868l-.01 1.045c0 1.393.231 2.464.694 3.213.462.748 1.149 1.123 2.06 1.123.866 0 1.533-.368 2.002-1.104.469-.736.706-1.794.713-3.174v-.654zM32.51.78l3.174 9.893L38.848.78h4.511V15h-3.437v-3.32l.332-6.797L36.816 15h-2.265L31.103 4.873l.332 6.807V15h-3.427V.781h4.502zm16.465 9.395V15h-3.428V.781h5.674c1.087 0 2.047.202 2.88.606.84.397 1.488.967 1.944 1.709.462.735.693 1.572.693 2.51 0 1.386-.498 2.496-1.494 3.33-.99.826-2.35 1.24-4.082 1.24h-2.187zm0-2.647h2.246c.664 0 1.168-.166 1.513-.498.352-.332.528-.8.528-1.406 0-.664-.18-1.195-.537-1.592-.358-.397-.847-.599-1.465-.605h-2.285v4.101zm15.937 4.815h-4.697L59.395 15h-3.663L60.947.781h3.223L69.424 15h-3.682l-.83-2.656zm-3.877-2.647h3.057l-1.533-4.931-1.524 4.931zM82.344 15h-3.408l-5.04-8.848V15H70.47V.781h3.428l5.029 8.848V.78h3.418V15zm7.1-8.047L92.06.781h3.7l-4.58 9.112V15h-3.476V9.893L83.135.78h3.681l2.627 6.172zm15.761 5.41h5.967V15h-9.395V.781h3.428v11.582zm18.828-4.18c0 1.387-.257 2.614-.771 3.682-.515 1.068-1.247 1.892-2.198 2.47-.944.574-2.021.86-3.232.86-1.211 0-2.285-.276-3.223-.83-.937-.56-1.67-1.357-2.197-2.392-.521-1.036-.794-2.224-.82-3.565v-.8c0-1.394.254-2.621.762-3.682.514-1.068 1.246-1.891 2.197-2.47.957-.58 2.044-.87 3.261-.87 1.205 0 2.279.286 3.223.86.944.572 1.677 1.39 2.197 2.45.528 1.055.795 2.266.801 3.633v.655zm-3.486-.595c0-1.413-.238-2.484-.713-3.213-.469-.736-1.143-1.104-2.022-1.104-1.718 0-2.626 1.29-2.724 3.868l-.01 1.045c0 1.393.231 2.464.693 3.213.463.748 1.15 1.123 2.061 1.123.866 0 1.533-.368 2.002-1.104.469-.736.706-1.794.713-3.174v-.654zm16.894 5.654c-.527.586-1.298 1.058-2.314 1.416-1.016.358-2.129.537-3.34.537-1.862 0-3.349-.57-4.463-1.709-1.113-1.139-1.709-2.724-1.787-4.756l-.01-1.23c0-1.4.248-2.62.743-3.662.494-1.048 1.201-1.852 2.119-2.412.924-.567 1.992-.85 3.203-.85 1.771 0 3.144.407 4.121 1.22.983.808 1.556 2.016 1.719 3.624h-3.301c-.117-.794-.371-1.36-.762-1.7-.39-.338-.944-.507-1.66-.507-.859 0-1.523.364-1.992 1.094-.469.729-.707 1.77-.713 3.125v.859c0 1.42.241 2.487.723 3.203.488.71 1.253 1.065 2.294 1.065.892 0 1.556-.199 1.993-.596V9.756h-2.383V7.402h5.81v5.84zm14.034-5.058c0 1.386-.258 2.614-.772 3.681-.514 1.068-1.247 1.892-2.197 2.47-.944.574-2.022.86-3.233.86-1.211 0-2.285-.276-3.222-.83-.938-.56-1.67-1.357-2.197-2.392-.521-1.036-.795-2.224-.821-3.565v-.8c0-1.394.254-2.621.762-3.682.514-1.068 1.247-1.891 2.197-2.47.957-.58 2.044-.87 3.262-.87 1.204 0 2.279.286 3.223.86.944.572 1.676 1.39 2.197 2.45.527 1.055.794 2.266.801 3.633v.655zm-3.487-.596c0-1.413-.237-2.484-.713-3.213-.468-.736-1.142-1.104-2.021-1.104-1.719 0-2.627 1.29-2.725 3.868l-.009 1.045c0 1.393.231 2.464.693 3.213.462.748 1.149 1.123 2.06 1.123.866 0 1.534-.368 2.002-1.104.469-.736.707-1.794.713-3.174v-.654z" fill="#000"/></svg>