<svg width="152" height="16" viewBox="0 0 152 16" fill="none" xmlns="http://www.w3.org/2000/svg">
<path d="M12.5781 10.1855C12.5326 11.1751 12.2656 12.0508 11.7773 12.8125C11.2891 13.5677 10.6022 14.1536 9.7168 14.5703C8.83789 14.987 7.83203 15.1953 6.69922 15.1953C4.83073 15.1953 3.35938 14.5866 2.28516 13.3691C1.21094 12.1517 0.673828 10.4329 0.673828 8.21289V7.50977C0.673828 6.11654 0.914714 4.89909 1.39648 3.85742C1.88477 2.80924 2.58464 2.00195 3.49609 1.43555C4.40755 0.86263 5.46224 0.576172 6.66016 0.576172C8.38542 0.576172 9.77214 1.0319 10.8203 1.94336C11.8685 2.84831 12.4642 4.09831 12.6074 5.69336H9.18945C9.16341 4.82747 8.94531 4.20573 8.53516 3.82812C8.125 3.45052 7.5 3.26172 6.66016 3.26172C5.80729 3.26172 5.18229 3.58073 4.78516 4.21875C4.38802 4.85677 4.17969 5.87565 4.16016 7.27539V8.28125C4.16016 9.79818 4.34896 10.8822 4.72656 11.5332C5.11068 12.1842 5.76823 12.5098 6.69922 12.5098C7.48698 12.5098 8.08919 12.3242 8.50586 11.9531C8.92253 11.582 9.14388 10.9928 9.16992 10.1855H12.5781ZM26.2402 8.18359C26.2402 9.57031 25.9831 10.7975 25.4688 11.8652C24.9544 12.9329 24.222 13.7565 23.2715 14.3359C22.3275 14.9089 21.25 15.1953 20.0391 15.1953C18.8281 15.1953 17.7539 14.9186 16.8164 14.3652C15.8789 13.8053 15.1465 13.0078 14.6191 11.9727C14.0983 10.9375 13.8249 9.74935 13.7988 8.4082V7.60742C13.7988 6.21419 14.0527 4.98698 14.5605 3.92578C15.0749 2.85807 15.8073 2.03451 16.7578 1.45508C17.7148 0.875651 18.8021 0.585938 20.0195 0.585938C21.224 0.585938 22.2982 0.872396 23.2422 1.44531C24.1862 2.01823 24.9186 2.83529 25.4395 3.89648C25.9668 4.95117 26.2337 6.16211 26.2402 7.5293V8.18359ZM22.7539 7.58789C22.7539 6.17513 22.5163 5.10417 22.041 4.375C21.5723 3.63932 20.8984 3.27148 20.0195 3.27148C18.3008 3.27148 17.3926 4.56055 17.2949 7.13867L17.2852 8.18359C17.2852 9.57682 17.5163 10.6478 17.9785 11.3965C18.4408 12.1452 19.1276 12.5195 20.0391 12.5195C20.9049 12.5195 21.5723 12.1517 22.041 11.416C22.5098 10.6803 22.7474 9.6224 22.7539 8.24219V7.58789ZM32.5098 0.78125L35.6836 10.6738L38.8477 0.78125H43.3594V15H39.9219V11.6797L40.2539 4.88281L36.8164 15H34.5508L31.1035 4.87305L31.4355 11.6797V15H28.0078V0.78125H32.5098ZM48.9746 10.1758V15H45.5469V0.78125H51.2207C52.3079 0.78125 53.2682 0.983073 54.1016 1.38672C54.9414 1.78385 55.5892 2.35352 56.0449 3.0957C56.5072 3.83138 56.7383 4.66797 56.7383 5.60547C56.7383 6.99219 56.2402 8.10221 55.2441 8.93555C54.2546 9.76237 52.8939 10.1758 51.1621 10.1758H48.9746ZM48.9746 7.5293H51.2207C51.8848 7.5293 52.3893 7.36328 52.7344 7.03125C53.0859 6.69922 53.2617 6.23047 53.2617 5.625C53.2617 4.96094 53.0827 4.43034 52.7246 4.0332C52.3665 3.63607 51.8783 3.43424 51.2598 3.42773H48.9746V7.5293ZM64.9121 12.3438H60.2148L59.3945 15H55.7324L60.9473 0.78125H64.1699L69.4238 15H65.7422L64.9121 12.3438ZM61.0352 9.69727H64.0918L62.5586 4.76562L61.0352 9.69727ZM82.3438 15H78.9355L73.8965 6.15234V15H70.4688V0.78125H73.8965L78.9258 9.62891V0.78125H82.3438V15ZM89.4434 6.95312L92.0605 0.78125H95.7617L91.1816 9.89258V15H87.7051V9.89258L83.1348 0.78125H86.8164L89.4434 6.95312ZM105.205 12.3633H111.172V15H101.777V0.78125H105.205V12.3633ZM124.033 8.18359C124.033 9.57031 123.776 10.7975 123.262 11.8652C122.747 12.9329 122.015 13.7565 121.064 14.3359C120.12 14.9089 119.043 15.1953 117.832 15.1953C116.621 15.1953 115.547 14.9186 114.609 14.3652C113.672 13.8053 112.939 13.0078 112.412 11.9727C111.891 10.9375 111.618 9.74935 111.592 8.4082V7.60742C111.592 6.21419 111.846 4.98698 112.354 3.92578C112.868 2.85807 113.6 2.03451 114.551 1.45508C115.508 0.875651 116.595 0.585938 117.812 0.585938C119.017 0.585938 120.091 0.872396 121.035 1.44531C121.979 2.01823 122.712 2.83529 123.232 3.89648C123.76 4.95117 124.027 6.16211 124.033 7.5293V8.18359ZM120.547 7.58789C120.547 6.17513 120.309 5.10417 119.834 4.375C119.365 3.63932 118.691 3.27148 117.812 3.27148C116.094 3.27148 115.186 4.56055 115.088 7.13867L115.078 8.18359C115.078 9.57682 115.309 10.6478 115.771 11.3965C116.234 12.1452 116.921 12.5195 117.832 12.5195C118.698 12.5195 119.365 12.1517 119.834 11.416C120.303 10.6803 120.54 9.6224 120.547 8.24219V7.58789ZM137.441 13.2422C136.914 13.8281 136.143 14.3001 135.127 14.6582C134.111 15.0163 132.998 15.1953 131.787 15.1953C129.925 15.1953 128.438 14.6257 127.324 13.4863C126.211 12.347 125.615 10.7617 125.537 8.73047L125.527 7.5C125.527 6.10026 125.775 4.87956 126.27 3.83789C126.764 2.78971 127.471 1.98568 128.389 1.42578C129.313 0.859375 130.381 0.576172 131.592 0.576172C133.363 0.576172 134.736 0.983073 135.713 1.79688C136.696 2.60417 137.269 3.81185 137.432 5.41992H134.131C134.014 4.62565 133.76 4.05924 133.369 3.7207C132.979 3.38216 132.425 3.21289 131.709 3.21289C130.85 3.21289 130.186 3.57747 129.717 4.30664C129.248 5.03581 129.01 6.07747 129.004 7.43164V8.29102C129.004 9.71029 129.245 10.778 129.727 11.4941C130.215 12.2038 130.98 12.5586 132.021 12.5586C132.913 12.5586 133.577 12.36 134.014 11.9629V9.75586H131.631V7.40234H137.441V13.2422ZM151.475 8.18359C151.475 9.57031 151.217 10.7975 150.703 11.8652C150.189 12.9329 149.456 13.7565 148.506 14.3359C147.562 14.9089 146.484 15.1953 145.273 15.1953C144.062 15.1953 142.988 14.9186 142.051 14.3652C141.113 13.8053 140.381 13.0078 139.854 11.9727C139.333 10.9375 139.059 9.74935 139.033 8.4082V7.60742C139.033 6.21419 139.287 4.98698 139.795 3.92578C140.309 2.85807 141.042 2.03451 141.992 1.45508C142.949 0.875651 144.036 0.585938 145.254 0.585938C146.458 0.585938 147.533 0.872396 148.477 1.44531C149.421 2.01823 150.153 2.83529 150.674 3.89648C151.201 4.95117 151.468 6.16211 151.475 7.5293V8.18359ZM147.988 7.58789C147.988 6.17513 147.751 5.10417 147.275 4.375C146.807 3.63932 146.133 3.27148 145.254 3.27148C143.535 3.27148 142.627 4.56055 142.529 7.13867L142.52 8.18359C142.52 9.57682 142.751 10.6478 143.213 11.3965C143.675 12.1452 144.362 12.5195 145.273 12.5195C146.139 12.5195 146.807 12.1517 147.275 11.416C147.744 10.6803 147.982 9.6224 147.988 8.24219V7.58789Z" fill="black"/>
</svg>
