<svg width="50" height="16" viewBox="0 0 50 16" fill="none" xmlns="http://www.w3.org/2000/svg">
<path d="M3.50195 12.3633H9.46875V15H0.0742188V0.78125H3.50195V12.3633ZM22.3301 8.18359C22.3301 9.57031 22.0729 10.7975 21.5586 11.8652C21.0443 12.9329 20.3118 13.7565 19.3613 14.3359C18.4173 14.9089 17.3398 15.1953 16.1289 15.1953C14.918 15.1953 13.8438 14.9186 12.9062 14.3652C11.9688 13.8053 11.2363 13.0078 10.709 11.9727C10.1882 10.9375 9.91471 9.74935 9.88867 8.4082V7.60742C9.88867 6.21419 10.1426 4.98698 10.6504 3.92578C11.1647 2.85807 11.8971 2.03451 12.8477 1.45508C13.8047 0.875651 14.8919 0.585938 16.1094 0.585938C17.3138 0.585938 18.388 0.872396 19.332 1.44531C20.276 2.01823 21.0085 2.83529 21.5293 3.89648C22.0566 4.95117 22.3236 6.16211 22.3301 7.5293V8.18359ZM18.8438 7.58789C18.8438 6.17513 18.6061 5.10417 18.1309 4.375C17.6621 3.63932 16.9883 3.27148 16.1094 3.27148C14.3906 3.27148 13.4824 4.56055 13.3848 7.13867L13.375 8.18359C13.375 9.57682 13.6061 10.6478 14.0684 11.3965C14.5306 12.1452 15.2174 12.5195 16.1289 12.5195C16.9948 12.5195 17.6621 12.1517 18.1309 11.416C18.5996 10.6803 18.8372 9.6224 18.8438 8.24219V7.58789ZM35.7383 13.2422C35.2109 13.8281 34.4395 14.3001 33.4238 14.6582C32.4082 15.0163 31.2949 15.1953 30.084 15.1953C28.222 15.1953 26.7344 14.6257 25.6211 13.4863C24.5078 12.347 23.9121 10.7617 23.834 8.73047L23.8242 7.5C23.8242 6.10026 24.0716 4.87956 24.5664 3.83789C25.0612 2.78971 25.7676 1.98568 26.6855 1.42578C27.61 0.859375 28.6777 0.576172 29.8887 0.576172C31.6595 0.576172 33.0332 0.983073 34.0098 1.79688C34.9928 2.60417 35.5658 3.81185 35.7285 5.41992H32.4277C32.3105 4.62565 32.0566 4.05924 31.666 3.7207C31.2754 3.38216 30.722 3.21289 30.0059 3.21289C29.1465 3.21289 28.4824 3.57747 28.0137 4.30664C27.5449 5.03581 27.3073 6.07747 27.3008 7.43164V8.29102C27.3008 9.71029 27.5417 10.778 28.0234 11.4941C28.5117 12.2038 29.2767 12.5586 30.3184 12.5586C31.2103 12.5586 31.8743 12.36 32.3105 11.9629V9.75586H29.9277V7.40234H35.7383V13.2422ZM49.7715 8.18359C49.7715 9.57031 49.5143 10.7975 49 11.8652C48.4857 12.9329 47.7533 13.7565 46.8027 14.3359C45.8587 14.9089 44.7812 15.1953 43.5703 15.1953C42.3594 15.1953 41.2852 14.9186 40.3477 14.3652C39.4102 13.8053 38.6777 13.0078 38.1504 11.9727C37.6296 10.9375 37.3561 9.74935 37.3301 8.4082V7.60742C37.3301 6.21419 37.584 4.98698 38.0918 3.92578C38.6061 2.85807 39.3385 2.03451 40.2891 1.45508C41.2461 0.875651 42.3333 0.585938 43.5508 0.585938C44.7552 0.585938 45.8294 0.872396 46.7734 1.44531C47.7174 2.01823 48.4499 2.83529 48.9707 3.89648C49.498 4.95117 49.765 6.16211 49.7715 7.5293V8.18359ZM46.2852 7.58789C46.2852 6.17513 46.0475 5.10417 45.5723 4.375C45.1035 3.63932 44.4297 3.27148 43.5508 3.27148C41.832 3.27148 40.9238 4.56055 40.8262 7.13867L40.8164 8.18359C40.8164 9.57682 41.0475 10.6478 41.5098 11.3965C41.972 12.1452 42.6589 12.5195 43.5703 12.5195C44.4362 12.5195 45.1035 12.1517 45.5723 11.416C46.041 10.6803 46.2786 9.6224 46.2852 8.24219V7.58789Z" fill="black"/>
</svg>
