<svg width="20" height="14" viewBox="0 0 20 14" fill="none" xmlns="http://www.w3.org/2000/svg">
<path d="M17.9166 0.5H2.08332C0.934998 0.5 0 1.435 0 2.58336V11.75C0 12.8983 0.934998 13.8333 2.08332 13.8333H17.9166C19.0649 13.8333 19.9999 12.8983 19.9999 11.75V2.58336C20 1.435 19.065 0.5 17.9166 0.5ZM19.1666 11.75C19.1666 12.4392 18.6058 13 17.9166 13H2.08332C1.39414 13 0.833319 12.4392 0.833319 11.75V2.58336C0.833319 1.89418 1.39414 1.33336 2.08332 1.33336H17.9166C18.6058 1.33336 19.1666 1.89418 19.1666 2.58336V11.75H19.1666Z" fill="#607D8B"/>
<path d="M19.5833 3H0.416679C0.186679 3 0 3.18668 0 3.41668V5.91668C0 6.14667 0.186679 6.33335 0.416679 6.33335H19.5833C19.8133 6.33335 20 6.14667 20 5.91668V3.41668C20 3.18668 19.8133 3 19.5833 3ZM19.1666 5.5H0.833319V3.83332H19.1666V5.5H19.1666Z" fill="#607D8B"/>
<path d="M7.91667 8.83337H2.91668C2.68668 8.83337 2.5 9.02005 2.5 9.25005C2.5 9.48005 2.68668 9.66669 2.91668 9.66669H7.91667C8.14667 9.66669 8.33335 9.48002 8.33335 9.25002C8.33335 9.02002 8.14667 8.83337 7.91667 8.83337Z" fill="#607D8B"/>
<path d="M7.91667 10.5H2.91668C2.68668 10.5 2.5 10.6867 2.5 10.9167C2.5 11.1467 2.68668 11.3334 2.91668 11.3334H7.91667C8.14667 11.3334 8.33335 11.1467 8.33335 10.9167C8.33331 10.6867 8.14667 10.5 7.91667 10.5Z" fill="#607D8B"/>
<path d="M16.2503 8H15.417C14.7278 8 14.167 8.56082 14.167 9.25V10.0833C14.167 10.7725 14.7278 11.3333 15.417 11.3333H16.2503C16.9395 11.3333 17.5003 10.7725 17.5003 10.0833V9.25C17.5003 8.56086 16.9395 8 16.2503 8ZM16.667 10.0834C16.667 10.3134 16.4803 10.5 16.2503 10.5H15.417C15.187 10.5 15.0003 10.3134 15.0003 10.0834V9.25004C15.0003 9.02004 15.187 8.83336 15.417 8.83336H16.2503C16.4803 8.83336 16.667 9.02004 16.667 9.25004V10.0834Z" fill="#607D8B"/>
</svg>
