<svg width="21" height="20" viewBox="0 0 21 20" fill="none" xmlns="http://www.w3.org/2000/svg">
<path fill-rule="evenodd" clip-rule="evenodd" d="M14.55 11C15.3 11 15.96 10.59 16.3 9.97L19.88 3.48C20.25 2.82 19.77 2 19.01 2H4.21L3.27 0H0V2H2L5.6 9.59L4.25 12.03C3.52 13.37 4.48 15 6 15H18V13H6L7.1 11H14.55ZM4.01 18C4.01 16.9 4.9 16 6 16C7.1 16 8 16.9 8 18C8 19.1 7.1 20 6 20C4.9 20 4.01 19.1 4.01 18ZM14.01 18C14.01 16.9 14.9 16 16 16C17.1 16 18 16.9 18 18C18 19.1 17.1 20 16 20C14.9 20 14.01 19.1 14.01 18ZM17.31 4H5.16L7.53 9H14.55L17.31 4Z" fill="#3F3D56"/>
</svg>
