<svg width="20" height="20" viewBox="0 0 20 20" fill="none" xmlns="http://www.w3.org/2000/svg">
<path d="M15.6685 1.51762L13.6212 0.337813L11.5738 1.51762L9.52645 0.337813L7.47906 1.51758L4.84531 0V15.7269H1.69922V17.8406C1.69922 19.0313 2.66793 20 3.85867 20H16.1429C17.3336 20 18.3023 19.0313 18.3023 17.8406V0L15.6685 1.51762ZM3.85867 18.8273C3.31461 18.8273 2.87195 18.3847 2.87195 17.8406V16.8996H13.9834V17.8406C13.9834 18.1958 14.0697 18.5314 14.2223 18.8273H3.85867ZM16.1428 18.8273C15.5988 18.8273 15.1561 18.3847 15.1561 17.8406V15.7269H6.01805V2.02922L7.47902 2.87105L9.52641 1.69137L11.5738 2.87105L13.6212 1.69133L15.6686 2.87105L17.1296 2.02922V17.8406C17.1295 18.3847 16.6869 18.8273 16.1428 18.8273Z" fill="#607D8B"/>
<path d="M15.9562 5.29257H7.19043V6.46531H15.9562V5.29257Z" fill="#607D8B"/>
<path d="M15.9562 7.52908H7.19043V8.70182H15.9562V7.52908Z" fill="#607D8B"/>
<path d="M11.5734 9.76556H7.19043V10.9383H11.5734V9.76556Z" fill="#607D8B"/>
</svg>
