<svg width="58" height="58" viewBox="0 0 58 58" fill="none" xmlns="http://www.w3.org/2000/svg">
<path d="M50.4654 0.00144386C48.2305 0.00144386 46.4121 1.81987 46.4121 4.05478C46.4121 6.28968 48.2305 8.10811 50.4654 8.10811C52.7003 8.10811 54.5188 6.28968 54.5188 4.05478C54.5188 1.81987 52.7003 0.00144386 50.4654 0.00144386ZM50.4654 6.08144C49.3477 6.08144 48.4388 5.17248 48.4388 4.05478C48.4388 2.93707 49.3477 2.02811 50.4654 2.02811C51.5831 2.02811 52.4921 2.93707 52.4921 4.05478C52.4921 5.17248 51.5831 6.08144 50.4654 6.08144Z" fill="#2196F3"/>
<path d="M35.7726 3.68235C36.4062 3.68235 36.9202 3.16859 36.9202 2.535C36.9202 1.90116 36.4064 1.3874 35.7726 1.3874C35.1388 1.3874 34.625 1.90116 34.625 2.535C34.6253 3.16859 35.139 3.68235 35.7726 3.68235Z" fill="#2196F3"/>
<path d="M56.0392 16.5873C55.4056 16.5873 54.8916 17.1011 54.8916 17.7349C54.8916 18.3685 55.4054 18.8823 56.0392 18.8823C56.673 18.8823 57.1868 18.3685 57.1868 17.7349C57.1868 17.1011 56.673 16.5873 56.0392 16.5873Z" fill="#2196F3"/>
<path d="M24.0435 25.6957L19.9131 28.1739V33.1304L24.0435 35.6087L28.174 33.1304V28.1739L24.0435 25.6957Z" fill="#2196F3"/>
<path d="M46.9212 16.3519L24.6279 3.41573C24.3132 3.23257 23.9254 3.23257 23.6105 3.41573L1.31714 16.3519C1.00503 16.5331 0.8125 16.867 0.8125 17.2282V43.5749C0.8125 43.9306 0.998953 44.2602 1.30346 44.4433L23.5968 57.8538C23.7577 57.9503 23.9388 57.9987 24.1192 57.9987C24.2995 57.9987 24.4809 57.9503 24.6415 57.8538L46.9349 44.4433C47.2391 44.2602 47.4258 43.9308 47.4258 43.5749V17.2282C47.4258 16.867 47.2333 16.5331 46.9212 16.3519ZM24.1192 5.46368L44.4074 17.2361L30.9934 25.1626L25.1325 21.7155V16.2149C25.1325 15.6553 24.6788 15.2016 24.1192 15.2016C23.5596 15.2016 23.1058 15.6553 23.1058 16.2149V21.7155L16.5123 25.5938C16.2025 25.776 16.0125 26.1078 16.0125 26.467V34.0151L2.83917 41.7993V17.8117L24.1192 5.46368ZM24.1192 37.8068L18.0392 34.2315V27.0467L24.1192 23.4709L30.1992 27.0467V34.2315L24.1192 37.8068ZM24.1192 55.8028L3.80462 43.5828L16.8429 35.8784L23.1061 39.5616V44.5882C23.1061 45.1478 23.5598 45.6016 24.1194 45.6016C24.679 45.6016 25.1328 45.1478 25.1328 44.5882V39.5616L31.7263 35.6838C32.0361 35.5017 32.2261 35.1698 32.2261 34.8106V26.7883L45.3994 19.0038V43.0019L24.1192 55.8028Z" fill="#E4EAEC"/>
</svg>
