<svg width="58" height="58" viewBox="0 0 58 58" fill="none" xmlns="http://www.w3.org/2000/svg">
<path d="M50.4664 0.00144196C48.2315 0.00144196 46.4131 1.81987 46.4131 4.05477C46.4131 6.28968 48.2315 8.10811 50.4664 8.10811C52.7013 8.10811 54.5197 6.28968 54.5197 4.05477C54.5197 1.81987 52.7013 0.00144196 50.4664 0.00144196ZM50.4664 6.08144C49.3487 6.08144 48.4398 5.17248 48.4398 4.05477C48.4398 2.93707 49.3487 2.02811 50.4664 2.02811C51.5841 2.02811 52.4931 2.93707 52.4931 4.05477C52.4931 5.17248 51.5841 6.08144 50.4664 6.08144Z" fill="#424242"/>
<path d="M35.7731 3.68235C36.4067 3.68235 36.9207 3.16859 36.9207 2.535C36.9207 1.90116 36.4069 1.3874 35.7731 1.3874C35.1392 1.3874 34.6255 1.90116 34.6255 2.535C34.6257 3.16859 35.1395 3.68235 35.7731 3.68235Z" fill="#424242"/>
<path d="M56.0397 16.5873C55.4061 16.5873 54.8921 17.1011 54.8921 17.7349C54.8921 18.3685 55.4058 18.8823 56.0397 18.8823C56.6735 18.8823 57.1873 18.3685 57.1873 17.7349C57.1873 17.1011 56.6735 16.5873 56.0397 16.5873Z" fill="#424242"/>
<path d="M24.0435 25.6956L19.9131 28.1739V33.1304L24.0435 35.6087L28.174 33.1304V28.1739L24.0435 25.6956Z" fill="#424242"/>
<path d="M46.9217 16.3519L24.6283 3.41573C24.3137 3.23257 23.9259 3.23257 23.611 3.41573L1.31763 16.3519C1.00552 16.5331 0.812988 16.867 0.812988 17.2282V43.5749C0.812988 43.9306 0.999442 44.2602 1.30395 44.4433L23.5973 57.8538C23.7581 57.9503 23.9393 57.9987 24.1197 57.9987C24.3 57.9987 24.4814 57.9503 24.642 57.8538L46.9354 44.4433C47.2396 44.2602 47.4263 43.9308 47.4263 43.5749V17.2282C47.4263 16.867 47.2338 16.5331 46.9217 16.3519ZM24.1197 5.46368L44.4079 17.2361L30.9939 25.1626L25.133 21.7155V16.2149C25.133 15.6553 24.6793 15.2016 24.1197 15.2016C23.56 15.2016 23.1063 15.6553 23.1063 16.2149V21.7155L16.5128 25.5938C16.203 25.7759 16.013 26.1078 16.013 26.467V34.0151L2.83965 41.7993V17.8117L24.1197 5.46368ZM24.1197 37.8067L18.0397 34.2315V27.0467L24.1197 23.4709L30.1997 27.0467V34.2315L24.1197 37.8067ZM24.1197 55.8028L3.80511 43.5828L16.8434 35.8784L23.1066 39.5616V44.5882C23.1066 45.1478 23.5603 45.6016 24.1199 45.6016C24.6795 45.6016 25.1332 45.1478 25.1332 44.5882V39.5616L31.7267 35.6838C32.0366 35.5017 32.2266 35.1698 32.2266 34.8106V26.7883L45.3999 19.0038V43.0019L24.1197 55.8028Z" fill="#E4EAEC"/>
</svg>
