<svg width="49" height="18" viewBox="0 0 49 18" fill="none" xmlns="http://www.w3.org/2000/svg">
<path d="M18.2611 5.72693H15.5586C15.4691 5.72687 15.3826 5.7577 15.3145 5.81384C15.2465 5.86998 15.2015 5.94776 15.1875 6.03315L14.0945 12.7291C14.0895 12.7602 14.0915 12.7919 14.1004 12.8222C14.1093 12.8524 14.1248 12.8805 14.146 12.9043C14.1672 12.9282 14.1935 12.9474 14.2231 12.9605C14.2526 12.9736 14.2848 12.9804 14.3174 12.9803H15.6076C15.6971 12.9804 15.7837 12.9495 15.8517 12.8933C15.9198 12.8371 15.9648 12.7592 15.9786 12.6737L16.2734 10.8677C16.2873 10.7823 16.3322 10.7045 16.4002 10.6483C16.4681 10.5921 16.5546 10.5612 16.6441 10.5611H17.4996C19.2798 10.5611 20.3072 9.72877 20.5755 8.07931C20.6965 7.35767 20.5807 6.79067 20.231 6.39358C19.8469 5.95755 19.1656 5.72693 18.2611 5.72693ZM18.5729 8.17247C18.4251 9.10946 17.6841 9.10946 16.9677 9.10946H16.5599L16.846 7.35958C16.8544 7.30839 16.8814 7.26176 16.9222 7.2281C16.963 7.19443 17.0148 7.17593 17.0685 7.17593H17.2554C17.7434 7.17593 18.2038 7.17593 18.4417 7.44473C18.5835 7.60509 18.627 7.84335 18.5729 8.17247ZM26.3394 8.14231H25.0452C24.9916 8.14231 24.9397 8.16081 24.8989 8.19448C24.8581 8.22814 24.8311 8.27477 24.8227 8.32596L24.7654 8.67571L24.6749 8.54895C24.3948 8.15606 23.77 8.02471 23.1465 8.02471C21.7164 8.02471 20.4949 9.07127 20.257 10.5394C20.1334 11.2717 20.3092 11.9719 20.7391 12.4603C21.1335 12.9093 21.6978 13.0964 22.3692 13.0964C23.5215 13.0964 24.1604 12.3805 24.1604 12.3805L24.1027 12.7279C24.0976 12.759 24.0995 12.7908 24.1083 12.8211C24.1171 12.8514 24.1326 12.8795 24.1537 12.9034C24.1748 12.9274 24.201 12.9466 24.2306 12.9598C24.2601 12.973 24.2923 12.9799 24.3248 12.9799H25.4906C25.5801 12.98 25.6667 12.9491 25.7347 12.8929C25.8028 12.8367 25.8478 12.7588 25.8616 12.6733L26.561 8.39355C26.5662 8.36255 26.5643 8.33084 26.5555 8.30062C26.5468 8.27039 26.5313 8.24237 26.5102 8.21848C26.4892 8.19459 26.463 8.17541 26.4335 8.16226C26.404 8.14911 26.3719 8.1423 26.3394 8.14231ZM24.5355 10.576C24.4106 11.2904 23.8238 11.77 23.0753 11.77C22.6995 11.77 22.3992 11.6535 22.2064 11.4328C22.0151 11.2137 21.9424 10.9017 22.0033 10.5543C22.1198 9.84598 22.7165 9.35076 23.4535 9.35076C23.821 9.35076 24.1197 9.46875 24.3165 9.69135C24.5137 9.91624 24.592 10.2301 24.5355 10.576ZM33.2318 8.14231H31.9313C31.87 8.1424 31.8096 8.15696 31.7554 8.1847C31.7012 8.21245 31.6548 8.25255 31.6203 8.30153L29.8267 10.8544L29.0664 8.40118C29.043 8.32636 28.9954 8.26079 28.9305 8.21417C28.8656 8.16754 28.7869 8.14235 28.706 8.14231H27.428C27.3922 8.14222 27.3568 8.15041 27.3248 8.16619C27.2929 8.18198 27.2653 8.20491 27.2444 8.23307C27.2235 8.26123 27.2099 8.29381 27.2046 8.3281C27.1994 8.36239 27.2027 8.3974 27.2142 8.4302L28.6467 12.492L27.3 14.3289C27.2761 14.3615 27.2619 14.3998 27.259 14.4396C27.2561 14.4795 27.2646 14.5193 27.2835 14.5548C27.3025 14.5903 27.3312 14.6201 27.3665 14.6408C27.4019 14.6616 27.4424 14.6726 27.4838 14.6725H28.7826C28.8433 14.6726 28.9031 14.6585 28.9568 14.6314C29.0106 14.6042 29.0567 14.5649 29.0913 14.5168L33.4167 8.48404C33.4401 8.4514 33.4539 8.41318 33.4565 8.37353C33.459 8.33388 33.4503 8.29431 33.4313 8.2591C33.4122 8.22389 33.3835 8.1944 33.3484 8.17381C33.3132 8.15322 33.2729 8.14233 33.2318 8.14231Z" fill="#253B80"/>
<path d="M37.5375 5.72694H34.8346C34.7452 5.72698 34.6588 5.75784 34.5908 5.81398C34.5229 5.87011 34.4779 5.94784 34.4639 6.03316L33.3709 12.7291C33.3658 12.7601 33.3678 12.7918 33.3766 12.8221C33.3854 12.8523 33.4009 12.8803 33.422 12.9042C33.4431 12.9281 33.4694 12.9472 33.4989 12.9604C33.5284 12.9735 33.5605 12.9803 33.593 12.9803H34.98C35.0426 12.9803 35.1031 12.9586 35.1506 12.9193C35.1981 12.8799 35.2296 12.8255 35.2393 12.7658L35.5495 10.8677C35.5633 10.7823 35.6082 10.7045 35.6762 10.6483C35.7442 10.5921 35.8307 10.5612 35.9201 10.5611H36.7752C38.5558 10.5611 39.5829 9.72878 39.8516 8.07933C39.9729 7.35769 39.8563 6.79069 39.5066 6.3936C39.1229 5.95756 38.442 5.72694 37.5375 5.72694ZM37.8493 8.17249C37.7019 9.10947 36.961 9.10947 36.2441 9.10947H35.8367L36.1232 7.3596C36.1314 7.3084 36.1584 7.26174 36.1991 7.22805C36.2398 7.19436 36.2917 7.17588 36.3453 7.17594H36.5322C37.0198 7.17594 37.4806 7.17594 37.7185 7.44474C37.8604 7.60511 37.9034 7.84336 37.8493 8.17249ZM45.6154 8.14233H44.322C44.2684 8.14218 44.2165 8.16064 44.1757 8.19434C44.135 8.22804 44.1081 8.27475 44.1 8.32598L44.0427 8.67573L43.9518 8.54896C43.6716 8.15607 43.0472 8.02473 42.4237 8.02473C40.9936 8.02473 39.7725 9.07129 39.5347 10.5394C39.4114 11.2717 39.5864 11.972 40.0164 12.4603C40.4115 12.9093 40.975 13.0964 41.6464 13.0964C42.7987 13.0964 43.4377 12.3805 43.4377 12.3805L43.38 12.728C43.3748 12.7591 43.3767 12.7909 43.3856 12.8213C43.3944 12.8516 43.41 12.8797 43.4312 12.9037C43.4523 12.9277 43.4787 12.9469 43.5083 12.9601C43.538 12.9732 43.5702 12.98 43.6028 12.98H44.7682C44.8576 12.9799 44.9441 12.949 45.0121 12.8928C45.08 12.8366 45.125 12.7588 45.1388 12.6734L45.8387 8.39356C45.8436 8.36247 45.8416 8.33071 45.8326 8.30046C45.8237 8.27021 45.8081 8.24218 45.7868 8.21831C45.7656 8.19445 45.7393 8.1753 45.7097 8.16218C45.6801 8.14906 45.648 8.14229 45.6154 8.14233ZM43.8115 10.576C43.6874 11.2904 43.0998 11.77 42.3514 11.77C41.9764 11.77 41.6752 11.6535 41.4824 11.4328C41.2911 11.2137 41.2192 10.9017 41.2793 10.5543C41.3967 9.846 41.9926 9.35078 42.7295 9.35078C43.097 9.35078 43.3958 9.46876 43.5926 9.69136C43.7905 9.91625 43.8688 10.2301 43.8115 10.576ZM47.1411 5.9106L46.0319 12.7291C46.0268 12.7601 46.0288 12.7918 46.0376 12.8221C46.0464 12.8523 46.0619 12.8803 46.083 12.9042C46.1041 12.9281 46.1303 12.9472 46.1598 12.9604C46.1894 12.9735 46.2215 12.9803 46.254 12.9803H47.3691C47.5545 12.9803 47.7117 12.8505 47.7402 12.6737L48.834 5.97818C48.8391 5.94714 48.8371 5.91541 48.8283 5.88517C48.8195 5.85493 48.804 5.82689 48.7829 5.80298C48.7618 5.77907 48.7356 5.75986 48.7061 5.74667C48.6765 5.73348 48.6444 5.72662 48.6119 5.72656H47.3632C47.3096 5.72675 47.2578 5.74537 47.2171 5.77909C47.1764 5.81281 47.1495 5.85943 47.1411 5.9106Z" fill="#179BD7"/>
<path d="M2.87092 14.2816L3.07759 13.0132L2.61723 13.0029H0.418945L1.94664 3.64334C1.95119 3.61475 1.96622 3.58868 1.989 3.5699C2.01177 3.55111 2.04078 3.54086 2.07072 3.54102H5.77733C7.00786 3.54102 7.85707 3.78844 8.30044 4.27678C8.50829 4.50587 8.64067 4.74527 8.70469 5.00873C8.77186 5.28516 8.77305 5.61544 8.70745 6.01825L8.70271 6.04765V6.30576L8.91057 6.41954C9.06925 6.49722 9.21188 6.6023 9.33141 6.72958C9.50923 6.92545 9.62423 7.1744 9.67283 7.46954C9.72302 7.77309 9.70642 8.13429 9.62423 8.54322C9.52939 9.01362 9.37607 9.42331 9.169 9.75854C8.98631 10.0589 8.74066 10.319 8.44783 10.5222C8.1728 10.7108 7.846 10.854 7.47653 10.9456C7.11851 11.0357 6.71031 11.0812 6.26259 11.0812H5.97412C5.76785 11.0812 5.5675 11.1529 5.41023 11.2816C5.25318 11.4117 5.14899 11.5913 5.11623 11.7887L5.09449 11.9028L4.72936 14.1384L4.71277 14.2205C4.70842 14.2464 4.70091 14.2594 4.68985 14.2682C4.67913 14.2767 4.66576 14.2814 4.65191 14.2816H2.87092Z" fill="#253B80"/>
<path d="M9.10759 6.07751C9.09653 6.14586 9.08388 6.21573 9.06966 6.28751C8.58084 8.71244 6.90852 9.55015 4.77267 9.55015H3.68519C3.42399 9.55015 3.20388 9.73342 3.16318 9.98237L2.6064 13.3943L2.44873 14.3614C2.44245 14.3998 2.44485 14.439 2.45576 14.4764C2.46667 14.5138 2.48584 14.5484 2.51194 14.578C2.53804 14.6075 2.57045 14.6312 2.60695 14.6475C2.64345 14.6638 2.68317 14.6722 2.72337 14.6722H4.65215C4.88055 14.6722 5.07458 14.5119 5.11054 14.2942L5.1295 14.1996L5.49266 11.9728L5.51597 11.8506C5.55154 11.6322 5.74596 11.4718 5.97436 11.4718H6.26283C8.13154 11.4718 9.59443 10.7388 10.022 8.61737C10.2006 7.73117 10.1081 6.99121 9.63553 6.47079C9.48573 6.3098 9.30683 6.17653 9.10759 6.07751Z" fill="#179BD7"/>
<path d="M8.59616 5.88036C8.44008 5.83673 8.2813 5.80268 8.12078 5.77841C7.80359 5.73131 7.48302 5.70871 7.16212 5.71083H4.25689C4.14633 5.71075 4.03938 5.74889 3.95538 5.81835C3.87139 5.88782 3.81588 5.98403 3.7989 6.08959L3.18087 9.87188L3.16309 9.98223C3.18234 9.86182 3.24556 9.75205 3.3413 9.67277C3.43705 9.5935 3.559 9.54995 3.68509 9.55001H4.77258C6.90842 9.55001 8.58075 8.71192 9.06956 6.28737C9.08418 6.21559 9.09643 6.14572 9.1075 6.07737C8.97851 6.01202 8.84408 5.95723 8.70562 5.91357C8.66932 5.90194 8.63283 5.89086 8.59616 5.88036Z" fill="#222D65"/>
<path d="M3.79905 6.08964C3.81588 5.98405 3.87136 5.88779 3.9554 5.81836C4.03944 5.74893 4.14646 5.71093 4.25704 5.71126H7.16226C7.50645 5.71126 7.82771 5.73302 8.12092 5.77884C8.31934 5.80897 8.51501 5.85404 8.70616 5.91362C8.85039 5.95982 8.98435 6.01442 9.10804 6.07742C9.25346 5.1813 9.10685 4.57115 8.60539 4.01866C8.05256 3.41042 7.05478 3.15002 5.77801 3.15002H2.0714C1.81059 3.15002 1.58812 3.3333 1.54781 3.58262L0.00391593 13.0384C-0.00327527 13.0823 -0.000539263 13.1271 0.0119358 13.1699C0.0244108 13.2127 0.0463287 13.2524 0.076182 13.2862C0.106035 13.32 0.143115 13.3472 0.184871 13.3658C0.226627 13.3845 0.272069 13.3941 0.318069 13.3942H2.60645L3.18101 9.87193L3.79905 6.08964Z" fill="#253B80"/>
</svg>
