<svg width="18" height="14" viewBox="0 0 18 14" fill="none" xmlns="http://www.w3.org/2000/svg">
<path fill-rule="evenodd" clip-rule="evenodd" d="M17.3332 5.33331V1.99998C17.3332 1.08331 16.5832 0.333313 15.6665 0.333313H2.33317C1.4165 0.333313 0.674837 1.08331 0.674837 1.99998V5.33331C1.5915 5.33331 2.33317 6.08331 2.33317 6.99998C2.33317 7.91665 1.5915 8.66665 0.666504 8.66665V12C0.666504 12.9166 1.4165 13.6666 2.33317 13.6666H15.6665C16.5832 13.6666 17.3332 12.9166 17.3332 12V8.66665C16.4165 8.66665 15.6665 7.91665 15.6665 6.99998C15.6665 6.08331 16.4165 5.33331 17.3332 5.33331ZM15.6665 4.11665C14.6748 4.69165 13.9998 5.77498 13.9998 6.99998C13.9998 8.22498 14.6748 9.30831 15.6665 9.88331V12H2.33317V9.88331C3.32484 9.30831 3.99984 8.22498 3.99984 6.99998C3.99984 5.76665 3.33317 4.69165 2.3415 4.11665L2.33317 1.99998H15.6665V4.11665ZM8.99988 8.76665L6.55821 10.3333L7.29154 7.52498L5.04988 5.69165L7.94154 5.51665L8.99988 2.83331L10.0499 5.52498L12.9415 5.69998L10.6999 7.53331L11.4415 10.3333L8.99988 8.76665Z" fill="#999999"/>
</svg>
