<svg width="18" height="14" viewBox="0 0 18 14" fill="none" xmlns="http://www.w3.org/2000/svg">
<path fill-rule="evenodd" clip-rule="evenodd" d="M17.3332 5.33333V1.99999C17.3332 1.08333 16.5832 0.333328 15.6665 0.333328H2.33317C1.4165 0.333328 0.674837 1.08333 0.674837 1.99999V5.33333C1.5915 5.33333 2.33317 6.08333 2.33317 6.99999C2.33317 7.91666 1.5915 8.66666 0.666504 8.66666V12C0.666504 12.9167 1.4165 13.6667 2.33317 13.6667H15.6665C16.5832 13.6667 17.3332 12.9167 17.3332 12V8.66666C16.4165 8.66666 15.6665 7.91666 15.6665 6.99999C15.6665 6.08333 16.4165 5.33333 17.3332 5.33333ZM15.6665 4.11666C14.6748 4.69166 13.9998 5.77499 13.9998 6.99999C13.9998 8.22499 14.6748 9.30833 15.6665 9.88333V12H2.33317V9.88333C3.32484 9.30833 3.99984 8.22499 3.99984 6.99999C3.99984 5.76666 3.33317 4.69166 2.3415 4.11666L2.33317 1.99999H15.6665V4.11666ZM8.99988 8.76666L6.55821 10.3333L7.29154 7.525L5.04988 5.69166L7.94154 5.51666L8.99988 2.83333L10.0499 5.52499L12.9415 5.7L10.6999 7.53333L11.4415 10.3333L8.99988 8.76666Z" fill="white"/>
</svg>
