<svg width="20" height="14" fill="none" xmlns="http://www.w3.org/2000/svg"><path d="M17.917.5H2.083A2.086 2.086 0 000 2.583v9.167c0 1.148.935 2.083 2.083 2.083h15.834A2.086 2.086 0 0020 11.75V2.583A2.086 2.086 0 0017.917.5zm1.25 11.25c0 .69-.561 1.25-1.25 1.25H2.083c-.689 0-1.25-.56-1.25-1.25V2.583c0-.689.561-1.25 1.25-1.25h15.834c.689 0 1.25.561 1.25 1.25v9.167z" fill="#607D8B"/><path d="M19.583 3H.417A.417.417 0 000 3.417v2.5c0 .23.187.416.417.416h19.166c.23 0 .417-.186.417-.416v-2.5A.417.417 0 0019.583 3zm-.416 2.5H.833V3.833h18.334V5.5zM7.917 8.833h-5a.417.417 0 000 .834h5a.417.417 0 000-.834zm0 1.667h-5a.417.417 0 000 .833h5a.417.417 0 000-.833zM16.25 8h-.833c-.69 0-1.25.56-1.25 1.25v.833c0 .69.56 1.25 1.25 1.25h.833c.69 0 1.25-.56 1.25-1.25V9.25c0-.69-.56-1.25-1.25-1.25zm.417 2.083c0 .23-.187.417-.417.417h-.833a.417.417 0 01-.417-.417V9.25c0-.23.187-.417.417-.417h.833c.23 0 .417.187.417.417v.833z" fill="#607D8B"/></svg>