<svg width="24" height="24" fill="none" xmlns="http://www.w3.org/2000/svg"><path fill-rule="evenodd" clip-rule="evenodd" d="M5.343 8.04A7.508 7.508 0 0112 4c3.638 0 6.667 2.59 7.357 6.04A4.974 4.974 0 0123.995 15a5 5 0 01-4.998 5H6.002a6.004 6.004 0 01-5.997-6c0-3.09 2.339-5.64 5.338-5.96zm12.055 2.39A5.52 5.52 0 0012 6a5.455 5.455 0 00-4.868 2.97l-.5.95-1.07.11A3.973 3.973 0 002.005 14c0 2.21 1.79 4 3.998 4h12.995c1.65 0 2.999-1.35 2.999-3 0-1.55-1.22-2.85-2.78-2.96l-1.518-.11-.3-1.5z" fill="#4A4A4A"/></svg>