<svg width="20" height="20" fill="none" xmlns="http://www.w3.org/2000/svg"><path d="M15.668 1.518L13.621.338l-2.047 1.18L9.526.338 7.48 1.518 4.845 0v15.727H1.7v2.114C1.7 19.03 2.668 20 3.86 20h12.284c1.19 0 2.16-.969 2.16-2.16V0l-2.635 1.518zm-11.81 17.31a.988.988 0 01-.986-.987V16.9h11.111v.94c0 .356.087.691.24.987H3.858zm12.285 0a.988.988 0 01-.987-.987v-2.114H6.018V2.029l1.461.842 2.047-1.18 2.048 1.18 2.047-1.18 2.048 1.18 1.46-.842v15.812a.988.988 0 01-.986.986z" fill="#607D8B"/><path d="M15.956 5.293H7.19v1.172h8.766V5.293zm0 2.237H7.19v1.172h8.766V7.529zm-4.383 2.236H7.19v1.172h4.383V9.766z" fill="#607D8B"/></svg>