<svg width="49" height="18" fill="none" xmlns="http://www.w3.org/2000/svg"><path d="M18.261 5.727H15.56c-.09 0-.176.03-.244.087a.36.36 0 00-.127.22l-1.094 6.695a.211.211 0 00.052.175.224.224 0 00.171.076h1.29a.38.38 0 00.245-.087.36.36 0 00.127-.22l.294-1.805a.36.36 0 01.127-.22.383.383 0 01.244-.087h.856c1.78 0 2.807-.832 3.076-2.482.12-.721.005-1.288-.345-1.685-.384-.436-1.065-.667-1.97-.667zm.312 2.445c-.148.937-.889.937-1.605.937h-.408l.286-1.75a.216.216 0 01.076-.13.23.23 0 01.146-.053h.187c.488 0 .949 0 1.187.269.142.16.185.398.13.727zm7.766-.03h-1.294a.23.23 0 00-.146.052.216.216 0 00-.076.132l-.058.35-.09-.127c-.28-.393-.905-.524-1.529-.524-1.43 0-2.651 1.046-2.889 2.514-.124.733.052 1.433.482 1.921.395.45.959.636 1.63.636 1.152 0 1.791-.716 1.791-.716l-.057.348a.211.211 0 00.05.175.223.223 0 00.172.077h1.166c.09 0 .176-.03.244-.087a.36.36 0 00.127-.22l.699-4.28a.209.209 0 00-.05-.175.223.223 0 00-.172-.076zm-1.803 2.434c-.125.714-.712 1.194-1.46 1.194-.377 0-.677-.117-.87-.337-.19-.22-.264-.531-.203-.879.117-.708.713-1.203 1.45-1.203.368 0 .667.118.864.34.197.225.275.54.218.885zm8.696-2.434h-1.3a.388.388 0 00-.312.16l-1.793 2.552-.76-2.453a.365.365 0 00-.137-.187.385.385 0 00-.224-.072h-1.278a.232.232 0 00-.184.091.214.214 0 00-.03.197l1.433 4.062-1.347 1.837a.213.213 0 00.066.312.23.23 0 00.118.031h1.299a.386.386 0 00.308-.155l4.326-6.033a.214.214 0 00-.069-.31.231.231 0 00-.116-.032z" fill="#253B80"/><path d="M37.538 5.727h-2.703c-.09 0-.176.03-.244.087a.36.36 0 00-.127.22l-1.093 6.695a.21.21 0 00.051.175.225.225 0 00.171.076h1.387a.268.268 0 00.17-.06.252.252 0 00.09-.154l.31-1.898a.36.36 0 01.126-.22.384.384 0 01.244-.087h.855c1.78 0 2.808-.832 3.077-2.482.12-.721.004-1.288-.345-1.685-.384-.436-1.065-.667-1.97-.667zm.311 2.445c-.147.937-.888.937-1.605.937h-.407l.286-1.75a.215.215 0 01.076-.131.23.23 0 01.146-.052h.187c.488 0 .949 0 1.187.269.141.16.184.398.13.727zm7.766-.03h-1.293a.229.229 0 00-.146.052.215.215 0 00-.076.132l-.057.35-.091-.127c-.28-.393-.905-.524-1.528-.524-1.43 0-2.651 1.046-2.89 2.514-.123.733.052 1.433.482 1.921.395.45.959.636 1.63.636 1.153 0 1.792-.716 1.792-.716l-.058.348a.209.209 0 00.051.176.224.224 0 00.172.076h1.165c.09 0 .176-.031.244-.087a.36.36 0 00.127-.22l.7-4.28a.211.211 0 00-.052-.175.225.225 0 00-.172-.076zm-1.803 2.434c-.125.714-.712 1.194-1.46 1.194-.376 0-.677-.117-.87-.337-.19-.22-.263-.531-.203-.879.118-.708.714-1.203 1.45-1.203.368 0 .667.118.864.34.197.225.276.54.218.885zm3.33-4.665l-1.11 6.818a.21.21 0 00.051.175.225.225 0 00.171.076h1.115c.185 0 .343-.13.371-.306l1.094-6.696a.21.21 0 00-.051-.175.225.225 0 00-.171-.076h-1.249a.23.23 0 00-.146.052.216.216 0 00-.076.132z" fill="#179BD7"/><path d="M2.87 14.282l.208-1.269-.46-.01h-2.2l1.529-9.36a.12.12 0 01.042-.073.127.127 0 01.082-.029h3.706c1.23 0 2.08.247 2.523.736.208.229.34.468.405.732.067.276.068.606.002 1.01l-.004.029v.258l.208.114c.158.077.3.182.42.31.178.195.293.444.342.74.05.303.033.664-.049 1.073A3.7 3.7 0 019.17 9.76c-.183.3-.428.56-.721.763a2.975 2.975 0 01-.971.424c-.358.09-.767.135-1.214.135h-.289a.893.893 0 00-.564.2.837.837 0 00-.294.508l-.022.114-.365 2.235-.016.082c-.005.026-.012.04-.023.048a.063.063 0 01-.038.014H2.87z" fill="#253B80"/><path d="M9.108 6.078a6.071 6.071 0 01-.038.21C8.58 8.712 6.909 9.55 4.773 9.55H3.685a.523.523 0 00-.522.432l-.557 3.412-.157.967a.26.26 0 00.063.217.278.278 0 00.211.094h1.93a.46.46 0 00.458-.378l.019-.094.363-2.227.023-.122a.46.46 0 01.458-.38h.289c1.869 0 3.331-.732 3.759-2.854.179-.886.086-1.626-.386-2.146a1.838 1.838 0 00-.528-.393z" fill="#179BD7"/><path d="M8.596 5.88a3.971 3.971 0 00-.475-.102 6.247 6.247 0 00-.959-.067H4.257a.473.473 0 00-.302.107.444.444 0 00-.156.272L3.18 9.872l-.018.11c.02-.12.083-.23.178-.31a.539.539 0 01.344-.122h1.088c2.135 0 3.808-.838 4.297-3.263.014-.071.026-.141.037-.21a2.658 2.658 0 00-.51-.197z" fill="#222D65"/><path d="M3.799 6.09a.443.443 0 01.156-.272.472.472 0 01.302-.107h2.905c.344 0 .666.022.959.068.198.03.394.075.585.135.144.046.278.1.402.163.145-.896-.001-1.506-.503-2.058-.552-.609-1.55-.869-2.827-.869H2.071a.525.525 0 00-.523.433L.004 13.038a.297.297 0 00.072.248.317.317 0 00.242.108h2.288l.575-3.522.618-3.782z" fill="#253B80"/></svg>