<svg width="18" height="14" fill="none" xmlns="http://www.w3.org/2000/svg"><path fill-rule="evenodd" clip-rule="evenodd" d="M17.333 5.333V2c0-.917-.75-1.667-1.666-1.667H2.332C1.416.333.675 1.083.675 2v3.333c.916 0 1.658.75 1.658 1.667S1.591 8.667.667 8.667V12c0 .917.75 1.667 1.666 1.667h13.334c.916 0 1.666-.75 1.666-1.667V8.667c-.916 0-1.666-.75-1.666-1.667s.75-1.667 1.666-1.667zm-1.666-1.216A3.344 3.344 0 0014 7c0 1.225.675 2.308 1.666 2.883V12H2.333V9.883A3.344 3.344 0 004 7a3.327 3.327 0 00-1.66-2.883L2.333 2h13.334v2.117zM9 8.767l-2.442 1.566.734-2.808L5.05 5.692l2.892-.175L9 2.833l1.05 2.692 2.891.175L10.7 7.533l.742 2.8L9 8.767z" fill="#999"/></svg>